<svg xmlns="http://www.w3.org/2000/svg" width="800" height="800" viewBox="0 0 800 800" role="img" aria-hidden="true">
<defs>
    <linearGradient id="pg4" x1="0" y1="0" x2="1" y2="1">
      <stop offset="0%" stop-color="#e6b736"/><stop offset="100%" stop-color="#fffdf7"/>
    </linearGradient>
    <radialGradient id="ring4" cx="50%" cy="42%" r="45%">
      <stop offset="80%" stop-color="#4c2966" stop-opacity="0"/><stop offset="100%" stop-color="#4c2966" stop-opacity="0.15"/>
    </radialGradient>
    </defs>
<rect width="800" height="800" fill="url(#pg4)"/>
<path d="M 754.0,620.0 Q 754.0,620.0 747.7,690.7 Q 741.4,761.4 670.7,790.7 Q 600.0,819.9 523.0,796.9 Q 446.0,774.0 450.0,697.0 Q 453.9,620.0 473.6,566.6 Q 493.3,513.3 546.6,495.7 Q 600.0,478.1 653.1,495.9 Q 706.3,513.7 730.1,566.9 Z" fill="#4c2966" opacity="0.12"/>
<path d="M 257.3,150.0 Q 257.3,150.0 254.4,207.4 Q 251.6,264.8 189.9,276.9 Q 128.3,289.1 69.1,255.7 Q 9.9,222.3 34.9,162.1 Q 60.0,101.9 97.8,72.5 Q 135.6,43.1 194.4,38.1 Q 253.2,33.1 255.2,91.6 Z" fill="#4c2966" opacity="0.10"/>
<circle cx="400.0" cy="380.0" r="230" fill="url(#ring4)"/>
<circle cx="400.0" cy="380.0" r="150" fill="#fffdf7" opacity="0.85" stroke="#4c2966" stroke-width="2"/>
<g transform="translate(400.0,380.0) scale(2.2)"><path d="M0,-35 C25,-55 55,-35 40,-5 C55,5 55,35 25,35 C10,45 -10,45 -25,35 C-55,35 -55,5 -40,-5 C-55,-35 -25,-55 0,-35 Z" fill="none" stroke="#4c2966" stroke-width="4"/></g>
<path d="M40,40 L110,40 M40,40 L40,110" stroke="#4c2966" stroke-width="3" opacity="0.5" stroke-linecap="round"/>
<path d="M760,760 L690,760 M760,760 L760,690" stroke="#4c2966" stroke-width="3" opacity="0.5" stroke-linecap="round"/>
<text x="400.0" y="730" text-anchor="middle" font-family="Georgia,serif" font-size="26" fill="#4c2966" opacity="0.75">Wedding Gifts</text>
</svg>