<svg xmlns="http://www.w3.org/2000/svg" width="240" height="240" viewBox="0 0 240 240" role="img" aria-hidden="true">
<defs>
  <linearGradient id="goldG" x1="0" y1="0" x2="1" y2="1">
    <stop offset="0%" stop-color="#f4dd95"/><stop offset="55%" stop-color="#d4a017"/><stop offset="100%" stop-color="#8f6410"/>
  </linearGradient>
  <linearGradient id="purpG" x1="0" y1="0" x2="1" y2="1">
    <stop offset="0%" stop-color="#a37aca"/><stop offset="100%" stop-color="#3d2153"/>
  </linearGradient>
  <radialGradient id="dropG" cx="35%" cy="30%" r="80%">
    <stop offset="0%" stop-color="#f4dd95"/><stop offset="100%" stop-color="#8752b3"/>
  </radialGradient>
</defs>
<circle cx="120" cy="120" r="112" fill="none" stroke="url(#goldG)" stroke-width="2.5" opacity="0.6"/>
<!-- resin drop -->
<path d="M120 46 C150 90 176 118 176 150 A56 56 0 1 1 64 150 C64 118 90 90 120 46 Z" fill="url(#dropG)" opacity="0.95"/>
<!-- gift box -->
<g transform="translate(88,128)">
  <rect x="0" y="18" width="64" height="46" rx="4" fill="url(#purpG)"/>
  <rect x="0" y="18" width="64" height="14" fill="#fdf9ec" opacity="0.85"/>
  <rect x="27" y="18" width="10" height="46" fill="#e6b736"/>
  <path d="M32 18 C18 6 8 8 8 18 C8 24 20 22 32 18 Z" fill="#e6b736"/>
  <path d="M32 18 C46 6 56 8 56 18 C56 24 44 22 32 18 Z" fill="#e6b736"/>
</g>
<!-- flower accent -->
<g transform="translate(168,72)">
  <circle r="6" fill="#e8749d"/>
  <g fill="#f1a7c1">
    <ellipse cx="0" cy="-11" rx="5" ry="8"/>
    <ellipse cx="0" cy="11" rx="5" ry="8"/>
    <ellipse cx="-11" cy="0" rx="8" ry="5"/>
    <ellipse cx="11" cy="0" rx="8" ry="5"/>
  </g>
  <circle r="4" fill="#e6b736"/>
</g>
</svg>