<svg xmlns="http://www.w3.org/2000/svg" width="1200" height="500" viewBox="0 0 1200 500" role="img" aria-hidden="true">
<defs><linearGradient id="og" x1="0" y1="0" x2="1" y2="1">
    <stop offset="0%" stop-color="#8f6410"/><stop offset="100%" stop-color="#3d2153"/></linearGradient></defs>
<rect width="1200" height="500" rx="28" fill="url(#og)"/>
<path d="M 356.2,175.4 Q 356.2,175.4 335.7,222.2 Q 315.1,268.9 268.4,288.6 Q 221.6,308.3 196.6,266.9 Q 171.6,225.4 152.3,200.4 Q 133.0,175.4 149.4,147.5 Q 165.8,119.6 193.7,85.7 Q 221.6,51.8 257.3,77.9 Q 293.1,104.0 324.6,139.7 Z" fill="#fffdf7" opacity="0.11"/>
<path d="M 854.8,334.2 Q 854.8,334.2 839.4,357.6 Q 824.0,380.9 800.6,410.9 Q 777.3,441.0 739.8,425.1 Q 702.4,409.2 690.8,371.7 Q 679.3,334.2 696.6,302.5 Q 713.8,270.8 745.6,252.3 Q 777.3,233.9 803.4,258.0 Q 829.4,282.1 842.1,308.2 Z" fill="#fffdf7" opacity="0.11"/>
<path d="M 632.2,162.5 Q 632.2,162.5 630.4,181.5 Q 628.6,200.5 609.6,212.7 Q 590.6,224.9 572.7,211.6 Q 554.8,198.3 551.9,180.4 Q 548.9,162.5 541.6,134.3 Q 534.2,106.1 562.4,97.2 Q 590.6,88.3 617.6,98.4 Q 644.5,108.6 638.4,135.6 Z" fill="#fffdf7" opacity="0.11"/>
<path d="M 627.0,191.6 Q 627.0,191.6 622.3,229.0 Q 617.5,266.4 580.1,280.4 Q 542.7,294.4 499.0,286.8 Q 455.2,279.1 434.9,235.4 Q 414.6,191.6 431.9,144.9 Q 449.2,98.1 496.0,68.5 Q 542.7,38.9 597.2,60.9 Q 651.6,82.8 639.3,137.2 Z" fill="#fffdf7" opacity="0.10"/>
<circle cx="1060" cy="120" r="90" fill="#fffdf7" opacity="0.12"/>
<circle cx="120" cy="400" r="70" fill="#fffdf7" opacity="0.1"/>
<rect x="0" y="0" width="1200" height="500" rx="28" fill="none" stroke="#f4dd95" stroke-width="3" opacity="0.5"/>
</svg>