<svg xmlns="http://www.w3.org/2000/svg" width="700" height="700" viewBox="0 0 700 700" role="img" aria-hidden="true">
<defs><linearGradient id="gg16" x1="0" y1="0" x2="1" y2="1">
    <stop offset="0%" stop-color="#251134"/><stop offset="100%" stop-color="#6f3c97"/></linearGradient>
    <filter id="gb16"><feGaussianBlur stdDeviation="18"/></filter></defs>
<rect width="700" height="700" fill="url(#gg16)"/>
<path d="M 483.9,439.7 Q 483.9,439.7 475.5,493.1 Q 467.2,546.5 415.9,563.6 Q 364.7,580.6 320.0,566.1 Q 275.3,551.5 241.4,519.7 Q 207.6,487.8 226.2,446.5 Q 244.7,405.1 254.3,356.5 Q 263.8,308.0 317.9,282.7 Q 372.0,257.4 407.0,305.7 Q 442.0,354.0 462.9,396.8 Z" fill="#f4dd95" opacity="0.29" filter="url(#gb16)"/>
<path d="M 642.0,486.0 Q 642.0,486.0 629.1,506.5 Q 616.1,527.0 600.0,553.6 Q 583.8,580.2 553.8,570.7 Q 523.8,561.2 486.8,545.0 Q 449.8,528.7 449.3,485.8 Q 448.7,442.8 477.3,411.2 Q 505.8,379.6 544.1,389.5 Q 582.5,399.5 617.3,407.1 Q 652.1,414.8 647.0,450.4 Z" fill="#f4dd95" opacity="0.19" filter="url(#gb16)"/>
<path d="M 579.1,290.7 Q 579.1,290.7 545.9,369.2 Q 512.7,447.6 435.0,459.1 Q 357.3,470.6 309.7,435.7 Q 262.0,400.8 218.0,373.3 Q 174.0,345.8 122.0,271.7 Q 70.0,197.7 162.5,182.9 Q 254.9,168.2 302.9,157.4 Q 351.0,146.6 415.8,153.6 Q 480.6,160.6 529.8,225.6 Z" fill="#f4dd95" opacity="0.30" filter="url(#gb16)"/>
<path d="M 451.0,269.8 Q 451.0,269.8 437.0,307.6 Q 423.0,345.4 384.1,342.4 Q 345.2,339.4 318.0,341.1 Q 290.8,342.8 263.5,323.9 Q 236.1,305.1 231.5,268.2 Q 227.0,231.3 247.1,193.7 Q 267.3,156.2 312.0,145.8 Q 356.6,135.3 377.5,175.2 Q 398.3,215.0 424.7,242.4 Z" fill="#f4dd95" opacity="0.27" filter="url(#gb16)"/>
<path d="M647,117 Q648,69 623,80" stroke="#fdf9ec" stroke-width="1.1" fill="none" opacity="0.50" stroke-linecap="round"/>
<path d="M215,453 Q366,499 419,473" stroke="#fdf9ec" stroke-width="1.1" fill="none" opacity="0.37" stroke-linecap="round"/>
<path d="M464,335 Q358,366 216,412" stroke="#fdf9ec" stroke-width="1.8" fill="none" opacity="0.35" stroke-linecap="round"/>
<path d="M385,99 Q392,124 467,205" stroke="#fdf9ec" stroke-width="1.9" fill="none" opacity="0.56" stroke-linecap="round"/>
<path d="M118,274 Q93,263 171,193" stroke="#fdf9ec" stroke-width="1.9" fill="none" opacity="0.47" stroke-linecap="round"/>
<circle cx="382" cy="72" r="2.7" fill="#f4dd95" opacity="0.49"/>
<circle cx="360" cy="114" r="1.7" fill="#f4dd95" opacity="0.51"/>
<circle cx="487" cy="467" r="3.8" fill="#f4dd95" opacity="0.45"/>
<circle cx="274" cy="231" r="2.8" fill="#f4dd95" opacity="0.57"/>
<circle cx="605" cy="65" r="2.9" fill="#f4dd95" opacity="0.61"/>
<circle cx="525" cy="302" r="1.7" fill="#f4dd95" opacity="0.43"/>
<circle cx="417" cy="545" r="2.0" fill="#f4dd95" opacity="0.43"/>
<circle cx="257" cy="37" r="3.9" fill="#f4dd95" opacity="0.44"/>
<circle cx="309" cy="679" r="3.5" fill="#f4dd95" opacity="0.41"/>
<circle cx="659" cy="578" r="2.9" fill="#f4dd95" opacity="0.48"/>
</svg>